HIERARCHY
ROOT mixamorig:Hips
{
	OFFSET -0.000008 104.274872 1.554316
	CHANNELS 6 Xposition Yposition Zposition Xrotation Yrotation Zrotation
	JOINT mixamorig:Spine
	{
		OFFSET -0.000005 10.181595 0.131519
		CHANNELS 6 Xposition Yposition Zposition Xrotation Yrotation Zrotation
		JOINT mixamorig:Spine1
		{
			OFFSET -0.000000 9.893959 -1.470707
			CHANNELS 6 Xposition Yposition Zposition Xrotation Yrotation Zrotation
			JOINT mixamorig:Spine2
			{
				OFFSET -0.000000 9.220757 -1.370641
				CHANNELS 6 Xposition Yposition Zposition Xrotation Yrotation Zrotation
				JOINT mixamorig:Neck
				{
					OFFSET 0.000001 16.740417 -2.049036
					CHANNELS 6 Xposition Yposition Zposition Xrotation Yrotation Zrotation
					JOINT mixamorig:Head
					{
						OFFSET 0.000000 9.617874 1.685006
						CHANNELS 6 Xposition Yposition Zposition Xrotation Yrotation Zrotation
						JOINT mixamorig:HeadTop_End
						{
							OFFSET 0.000002 22.037354 7.501101
							CHANNELS 6 Xposition Yposition Zposition Xrotation Yrotation Zrotation
							End Site
							{
								OFFSET 0.000168 2310.654297 -282.823242
							}
						}
					}
				}
				JOINT mixamorig:RightShoulder
				{
					OFFSET -4.569970 11.014908 -2.160885
					CHANNELS 6 Xposition Yposition Zposition Xrotation Yrotation Zrotation
					JOINT mixamorig:RightArm
					{
						OFFSET -10.592851 -0.524811 -2.232101
						CHANNELS 6 Xposition Yposition Zposition Xrotation Yrotation Zrotation
						JOINT mixamorig:RightForeArm
						{
							OFFSET -27.841511 0.000031 -0.000004
							CHANNELS 6 Xposition Yposition Zposition Xrotation Yrotation Zrotation
							JOINT mixamorig:RightHand
							{
								OFFSET -28.328831 -0.000015 0.000015
								CHANNELS 6 Xposition Yposition Zposition Xrotation Yrotation Zrotation
								JOINT mixamorig:RightHandThumb1
								{
									OFFSET -2.464806 -1.573990 2.681852
									CHANNELS 6 Xposition Yposition Zposition Xrotation Yrotation Zrotation
									JOINT mixamorig:RightHandThumb2
									{
										OFFSET -3.215179 -1.872803 1.924282
										CHANNELS 6 Xposition Yposition Zposition Xrotation Yrotation Zrotation
										JOINT mixamorig:RightHandThumb3
										{
											OFFSET -2.654831 -1.527969 1.512609
											CHANNELS 6 Xposition Yposition Zposition Xrotation Yrotation Zrotation
											JOINT mixamorig:RightHandThumb4
											{
												OFFSET -2.018814 -1.152008 1.108052
												CHANNELS 6 Xposition Yposition Zposition Xrotation Yrotation Zrotation
												End Site
												{
													OFFSET -188.809540 -114.533607 132.431396
												}
											}
										}
									}
								}
								JOINT mixamorig:RightHandIndex1
								{
									OFFSET -9.108284 -0.517868 2.259835
									CHANNELS 6 Xposition Yposition Zposition Xrotation Yrotation Zrotation
									JOINT mixamorig:RightHandIndex2
									{
										OFFSET -3.699989 0.000000 0.001215
										CHANNELS 6 Xposition Yposition Zposition Xrotation Yrotation Zrotation
										JOINT mixamorig:RightHandIndex3
										{
											OFFSET -2.850006 0.000031 -0.000522
											CHANNELS 6 Xposition Yposition Zposition Xrotation Yrotation Zrotation
											JOINT mixamorig:RightHandIndex4
											{
												OFFSET -2.772186 -0.000015 -0.000020
												CHANNELS 6 Xposition Yposition Zposition Xrotation Yrotation Zrotation
												End Site
												{
													OFFSET -277.218445 0.000000 -0.050231
												}
											}
										}
									}
								}
								JOINT mixamorig:RightHandMiddle1
								{
									OFFSET -9.532516 -0.000031 -0.000023
									CHANNELS 6 Xposition Yposition Zposition Xrotation Yrotation Zrotation
									JOINT mixamorig:RightHandMiddle2
									{
										OFFSET -3.700005 -0.000015 0.003713
										CHANNELS 6 Xposition Yposition Zposition Xrotation Yrotation Zrotation
										JOINT mixamorig:RightHandMiddle3
										{
											OFFSET -2.949974 0.000015 -0.002054
											CHANNELS 6 Xposition Yposition Zposition Xrotation Yrotation Zrotation
											JOINT mixamorig:RightHandMiddle4
											{
												OFFSET -2.946640 0.000000 -0.000156
												CHANNELS 6 Xposition Yposition Zposition Xrotation Yrotation Zrotation
												End Site
												{
													OFFSET -294.664337 0.000000 -0.113670
												}
											}
										}
									}
								}
								JOINT mixamorig:RightHandRing1
								{
									OFFSET -9.103600 -0.043076 -1.865134
									CHANNELS 6 Xposition Yposition Zposition Xrotation Yrotation Zrotation
									JOINT mixamorig:RightHandRing2
									{
										OFFSET -3.379288 0.000000 -0.001055
										CHANNELS 6 Xposition Yposition Zposition Xrotation Yrotation Zrotation
										JOINT mixamorig:RightHandRing3
										{
											OFFSET -2.889687 -0.000015 0.000379
											CHANNELS 6 Xposition Yposition Zposition Xrotation Yrotation Zrotation
											JOINT mixamorig:RightHandRing4
											{
												OFFSET -2.638809 -0.000015 0.000941
												CHANNELS 6 Xposition Yposition Zposition Xrotation Yrotation Zrotation
												End Site
												{
													OFFSET -263.880371 0.000000 0.516020
												}
											}
										}
									}
								}
								JOINT mixamorig:RightHandPinky1
								{
									OFFSET -8.076683 -0.486710 -3.806280
									CHANNELS 6 Xposition Yposition Zposition Xrotation Yrotation Zrotation
									JOINT mixamorig:RightHandPinky2
									{
										OFFSET -3.600014 -0.000015 -0.003747
										CHANNELS 6 Xposition Yposition Zposition Xrotation Yrotation Zrotation
										JOINT mixamorig:RightHandPinky3
										{
											OFFSET -2.099983 0.000000 -0.005739
											CHANNELS 6 Xposition Yposition Zposition Xrotation Yrotation Zrotation
											JOINT mixamorig:RightHandPinky4
											{
												OFFSET -2.115768 -0.000031 -0.003680
												CHANNELS 6 Xposition Yposition Zposition Xrotation Yrotation Zrotation
												End Site
												{
													OFFSET -211.577087 0.000000 -0.350686
												}
											}
										}
									}
								}
							}
						}
					}
				}
				JOINT mixamorig:LeftShoulder
				{
					OFFSET 4.570447 11.014725 -2.160855
					CHANNELS 6 Xposition Yposition Zposition Xrotation Yrotation Zrotation
					JOINT mixamorig:LeftArm
					{
						OFFSET 10.592371 -0.524597 -2.232119
						CHANNELS 6 Xposition Yposition Zposition Xrotation Yrotation Zrotation
						JOINT mixamorig:LeftForeArm
						{
							OFFSET 27.841532 -0.000031 0.000026
							CHANNELS 6 Xposition Yposition Zposition Xrotation Yrotation Zrotation
							JOINT mixamorig:LeftHand
							{
								OFFSET 28.328846 -0.000061 0.000022
								CHANNELS 6 Xposition Yposition Zposition Xrotation Yrotation Zrotation
								JOINT mixamorig:LeftHandThumb1
								{
									OFFSET 2.466141 -1.576172 2.681732
									CHANNELS 6 Xposition Yposition Zposition Xrotation Yrotation Zrotation
									JOINT mixamorig:LeftHandThumb2
									{
										OFFSET 3.217812 -1.872070 1.916482
										CHANNELS 6 Xposition Yposition Zposition Xrotation Yrotation Zrotation
										JOINT mixamorig:LeftHandThumb3
										{
											OFFSET 2.656029 -1.528778 1.514513
											CHANNELS 6 Xposition Yposition Zposition Xrotation Yrotation Zrotation
											JOINT mixamorig:LeftHandThumb4
											{
												OFFSET 2.020889 -1.154053 1.115139
												CHANNELS 6 Xposition Yposition Zposition Xrotation Yrotation Zrotation
												End Site
												{
													OFFSET 190.885437 -115.081749 130.048782
												}
											}
										}
									}
								}
								JOINT mixamorig:LeftHandIndex1
								{
									OFFSET 9.109314 -0.518021 2.259871
									CHANNELS 6 Xposition Yposition Zposition Xrotation Yrotation Zrotation
									JOINT mixamorig:LeftHandIndex2
									{
										OFFSET 3.699989 0.000000 -0.000322
										CHANNELS 6 Xposition Yposition Zposition Xrotation Yrotation Zrotation
										JOINT mixamorig:LeftHandIndex3
										{
											OFFSET 2.850006 0.000000 0.000352
											CHANNELS 6 Xposition Yposition Zposition Xrotation Yrotation Zrotation
											JOINT mixamorig:LeftHandIndex4
											{
												OFFSET 2.774864 -0.000031 -0.000027
												CHANNELS 6 Xposition Yposition Zposition Xrotation Yrotation Zrotation
												End Site
												{
													OFFSET 277.486267 0.000000 -0.009857
												}
											}
										}
									}
								}
								JOINT mixamorig:LeftHandMiddle1
								{
									OFFSET 9.533394 0.000061 0.000044
									CHANNELS 6 Xposition Yposition Zposition Xrotation Yrotation Zrotation
									JOINT mixamorig:LeftHandMiddle2
									{
										OFFSET 3.699989 -0.000015 -0.000231
										CHANNELS 6 Xposition Yposition Zposition Xrotation Yrotation Zrotation
										JOINT mixamorig:LeftHandMiddle3
										{
											OFFSET 2.949997 -0.000015 -0.000059
											CHANNELS 6 Xposition Yposition Zposition Xrotation Yrotation Zrotation
											JOINT mixamorig:LeftHandMiddle4
											{
												OFFSET 2.952896 0.000031 0.000063
												CHANNELS 6 Xposition Yposition Zposition Xrotation Yrotation Zrotation
												End Site
												{
													OFFSET 295.289337 0.000000 0.022810
												}
											}
										}
									}
								}
								JOINT mixamorig:LeftHandRing1
								{
									OFFSET 9.104523 -0.042999 -1.865074
									CHANNELS 6 Xposition Yposition Zposition Xrotation Yrotation Zrotation
									JOINT mixamorig:LeftHandRing2
									{
										OFFSET 3.150009 -0.000031 0.000043
										CHANNELS 6 Xposition Yposition Zposition Xrotation Yrotation Zrotation
										JOINT mixamorig:LeftHandRing3
										{
											OFFSET 2.949982 -0.000015 0.000040
											CHANNELS 6 Xposition Yposition Zposition Xrotation Yrotation Zrotation
											JOINT mixamorig:LeftHandRing4
											{
												OFFSET 2.644348 0.000000 0.000057
												CHANNELS 6 Xposition Yposition Zposition Xrotation Yrotation Zrotation
												End Site
												{
													OFFSET 264.434631 0.000000 0.012105
												}
											}
										}
									}
								}
								JOINT mixamorig:LeftHandPinky1
								{
									OFFSET 8.077789 -0.486847 -3.806259
									CHANNELS 6 Xposition Yposition Zposition Xrotation Yrotation Zrotation
									JOINT mixamorig:LeftHandPinky2
									{
										OFFSET 3.599953 0.000031 0.014727
										CHANNELS 6 Xposition Yposition Zposition Xrotation Yrotation Zrotation
										JOINT mixamorig:LeftHandPinky3
										{
											OFFSET 2.100021 0.000015 0.007705
											CHANNELS 6 Xposition Yposition Zposition Xrotation Yrotation Zrotation
											JOINT mixamorig:LeftHandPinky4
											{
												OFFSET 2.125504 0.000031 0.007517
												CHANNELS 6 Xposition Yposition Zposition Xrotation Yrotation Zrotation
												End Site
												{
													OFFSET 212.550781 0.000000 0.625752
												}
											}
										}
									}
								}
							}
						}
					}
				}
			}
		}
	}
	JOINT mixamorig:RightUpLeg
	{
		OFFSET -8.207787 -6.751648 -1.599560
		CHANNELS 6 Xposition Yposition Zposition Xrotation Yrotation Zrotation
		JOINT mixamorig:RightLeg
		{
			OFFSET -0.000002 -44.370117 0.345942
			CHANNELS 6 Xposition Yposition Zposition Xrotation Yrotation Zrotation
			JOINT mixamorig:RightFoot
			{
				OFFSET 0.000003 -44.423679 -3.043532
				CHANNELS 6 Xposition Yposition Zposition Xrotation Yrotation Zrotation
				JOINT mixamorig:RightToeBase
				{
					OFFSET -0.000002 -8.728671 10.710558
					CHANNELS 6 Xposition Yposition Zposition Xrotation Yrotation Zrotation
					JOINT mixamorig:RightToe_End
					{
						OFFSET -0.000001 -0.000679 9.278119
						CHANNELS 6 Xposition Yposition Zposition Xrotation Yrotation Zrotation
						End Site
						{
							OFFSET 0.000000 -0.067690 927.812134
						}
					}
				}
			}
		}
	}
	JOINT mixamorig:LeftUpLeg
	{
		OFFSET 8.207793 -6.751686 -1.599556
		CHANNELS 6 Xposition Yposition Zposition Xrotation Yrotation Zrotation
		JOINT mixamorig:LeftLeg
		{
			OFFSET -0.000004 -44.370014 0.346954
			CHANNELS 6 Xposition Yposition Zposition Xrotation Yrotation Zrotation
			JOINT mixamorig:LeftFoot
			{
				OFFSET -0.000001 -44.423672 -3.044401
				CHANNELS 6 Xposition Yposition Zposition Xrotation Yrotation Zrotation
				JOINT mixamorig:LeftToeBase
				{
					OFFSET -0.000002 -8.728669 10.710558
					CHANNELS 6 Xposition Yposition Zposition Xrotation Yrotation Zrotation
					JOINT mixamorig:LeftToe_End
					{
						OFFSET -0.000003 -0.000679 9.278133
						CHANNELS 6 Xposition Yposition Zposition Xrotation Yrotation Zrotation
						End Site
						{
							OFFSET 0.000000 -0.068021 927.813477
						}
					}
				}
			}
		}
	}
}
MOTION
Frames: 3
Frame Time: 0.033333
0.000006 104.270477 1.554256 0.000010 0.000003 -0.000113 -0.000005 10.181587 0.131522 0.000001 -0.000003 0.000084 -0.000000 9.893967 -1.470711 0.000001 0.000000 -0.000000 -0.000000 9.220802 -1.370642 0.000000 -0.000000 -0.000000 0.000001 16.740433 -2.049030 0.000000 -0.000000 -0.000000 0.000000 9.617859 1.685014 0.000000 0.000000 0.000000 0.000002 22.037384 7.501101 0.000000 -0.000000 0.000000 -4.569968 11.014880 -2.160881 0.000008 0.000001 -0.000038 -10.592802 -0.524822 -2.231758 47.844386 66.089935 -32.193537 -27.841516 -0.000026 0.000570 68.114540 105.270741 -83.034077 -28.328835 0.000021 0.000022 -0.000322 -0.000045 0.000006 -2.464411 -1.574108 2.682210 20.543662 -114.321862 70.744258 -3.214884 -1.872990 1.924706 208.826327 -39.796749 274.827414 -2.654609 -1.528118 1.513177 181.817874 -19.846274 259.537927 -2.018835 -1.151997 1.108071 -0.000004 -0.000002 0.000005 -9.108253 -0.517812 2.260431 218.372609 27.929724 -288.886976 -3.699777 0.000049 0.001824 185.286052 29.821005 -199.604984 -2.849955 0.000001 0.000043 167.518572 24.315294 -126.171066 -2.772173 -0.000015 -0.000027 -0.000002 -0.000001 0.000001 -9.532580 0.000022 0.000507 152.093122 20.923641 -73.760094 -3.700088 0.000227 0.004195 134.897274 13.286245 -31.099805 -2.950072 0.000246 -0.001631 133.240557 17.240352 -38.629993 -2.946622 0.000030 -0.000158 0.000000 0.000001 -0.000001 -9.103684 -0.042899 -1.864614 146.514183 13.017160 -41.392189 -3.379055 0.000383 -0.000852 108.388443 -27.914736 38.013339 -2.889616 0.000029 0.000329 180.951204 -160.201144 180.172822 -2.638802 -0.000014 0.000943 0.000001 -0.000001 0.000000 -8.076725 -0.486523 -3.805751 150.390848 9.337845 -33.792938 -3.599620 0.000288 -0.003434 318.830608 -144.874077 260.214279 -2.099764 -0.000219 -0.005691 131.608907 -141.236359 161.875497 -2.115777 -0.000056 -0.003677 0.000001 0.000006 -0.000003 4.570446 11.014691 -2.160851 -0.000018 0.000010 -0.000021 10.592491 -0.524545 -2.232378 50.468900 -59.319749 30.046893 27.841730 -0.000047 -0.000117 83.108977 -100.423452 93.571508 28.328838 -0.000028 0.000019 0.000021 -0.000088 0.000000 2.466131 -1.576173 2.681879 -124.173440 59.525754 71.408740 3.217825 -1.872015 1.916538 243.014634 47.014484 420.080622 2.656018 -1.528801 1.514598 -139.503281 41.727207 76.819670 2.020887 -1.154058 1.115142 0.000001 0.000002 0.000004 9.109198 -0.517771 2.260110 240.246112 -20.718301 325.034468 3.699757 0.000259 -0.000165 203.078613 -18.071745 284.162589 2.849716 0.000132 0.000465 188.482103 -16.049932 -124.515838 2.774886 -0.000025 -0.000033 -0.000000 0.000000 -0.000003 9.533450 0.000046 0.000107 170.214625 -17.330338 -238.700823 3.700051 0.000247 -0.000355 108.838620 -5.080339 7.093348 2.950031 0.000093 -0.000205 54.162065 -7.751409 3.969288 2.952862 -0.000044 0.000069 0.000002 -0.000002 -0.000002 9.104582 -0.042998 -1.865025 172.222865 -15.641649 -232.645887 3.149886 0.000329 -0.000135 107.768979 21.021321 -28.532767 2.949908 0.000103 -0.000141 40.757364 33.862589 -12.903665 2.644319 0.000029 0.000058 -0.000000 0.000001 -0.000000 8.077689 -0.486874 -3.806176 178.089123 -15.042563 -190.571785 3.599797 0.000415 0.014591 131.293981 17.760707 -37.615798 2.099864 0.000113 0.007507 62.078742 42.885897 -26.606905 2.125491 -0.000002 0.007520 -0.000003 -0.000001 0.000002 -8.207786 -6.751667 -1.599560 -0.077001 -0.000003 0.000080 -0.000002 -44.370110 0.345938 0.153719 -0.000000 -0.000000 0.000000 -44.423679 -3.043532 -0.076700 0.000000 -0.000002 -0.000006 -8.728667 10.710559 -0.000009 -0.000000 -0.000000 -0.000001 -0.000679 9.278123 0.000000 -0.000000 -0.000000 8.207792 -6.751710 -1.599556 -0.074518 -0.000003 0.000081 -0.000002 -44.370014 0.346960 0.148822 0.000002 0.000000 -0.000001 -44.423664 -3.044403 -0.074314 0.000000 -0.000002 -0.000004 -8.728671 10.710558 0.000007 -0.000000 -0.000000 0.000000 -0.000680 9.278137 -0.000000 0.000000 -0.000001 
0.000006 104.270477 1.554256 0.000010 0.000003 -0.000113 -0.000005 10.181587 0.131522 0.000001 -0.000003 0.000084 -0.000000 9.893967 -1.470711 0.000001 0.000000 -0.000000 -0.000000 9.220802 -1.370642 0.000000 -0.000000 -0.000000 0.000001 16.740433 -2.049030 0.000000 -0.000000 -0.000000 0.000000 9.617859 1.685014 0.000000 0.000000 0.000000 0.000002 22.037384 7.501101 0.000000 -0.000000 0.000000 -4.569968 11.014880 -2.160881 0.000008 0.000001 -0.000038 -10.592817 -0.524824 -2.231778 45.939248 62.655818 -28.932292 -27.841528 -0.000002 0.000546 81.853076 103.584887 -95.530830 -28.328829 0.000022 0.000020 -0.000320 -0.000044 0.000007 -2.464444 -1.574134 2.682201 39.673943 -119.110112 93.136384 -3.214878 -1.873032 1.924689 215.773066 -43.638550 278.745730 -2.654608 -1.528167 1.513147 193.448675 -28.501341 265.829323 -2.018831 -1.151998 1.108073 -0.000006 -0.000002 0.000004 -9.108311 -0.517913 2.260368 240.275291 20.564940 -325.261231 -3.699873 0.000147 0.001821 203.062480 23.110358 -269.869462 -2.849795 0.000100 0.000085 184.268614 19.694625 -204.231344 -2.772167 -0.000002 -0.000036 0.000001 0.000000 -0.000002 -9.532325 -0.000069 0.000566 177.663507 19.087616 -166.918308 -3.700071 0.000196 0.004197 144.006315 16.152837 -46.890905 -2.950130 0.000227 -0.001647 116.023645 28.707241 -44.545756 -2.946632 -0.000014 -0.000170 0.000002 0.000002 -0.000000 -9.103543 -0.043083 -1.864557 168.121145 14.201685 -99.956567 -3.379212 0.000328 -0.000580 152.988424 -4.763143 19.598123 -2.889704 0.000360 0.000616 274.758184 -180.784903 179.102013 -2.638813 -0.000028 0.000941 -0.000000 -0.000000 -0.000002 -8.076662 -0.486670 -3.805714 167.615561 8.314397 -66.360786 -3.599657 0.000267 -0.003321 336.999649 -157.655547 268.259477 -2.099591 0.000093 -0.005764 205.507360 -114.079903 196.591819 -2.115782 -0.000055 -0.003678 0.000001 -0.000000 -0.000004 4.570446 11.014691 -2.160851 -0.000018 0.000010 -0.000021 10.592484 -0.524546 -2.232374 52.058595 -54.696940 28.351514 27.841721 -0.000041 -0.000121 111.758622 -100.200801 120.933936 28.328833 -0.000017 0.000025 0.000019 -0.000090 -0.000000 2.466173 -1.576128 2.681867 -117.830845 44.394228 58.028126 3.217842 -1.871985 1.916528 240.864053 36.625530 416.059006 2.656075 -1.528742 1.514592 -145.327028 27.814653 71.815505 2.020899 -1.154075 1.115146 0.000002 0.000001 -0.000001 9.109239 -0.517870 2.260110 273.548858 -27.663970 333.944095 3.699798 0.000229 -0.000112 222.603283 -29.659769 291.640062 2.849744 0.000215 0.000500 198.926118 -23.053371 -101.481981 2.774886 -0.000015 -0.000026 -0.000001 -0.000002 0.000004 9.533421 0.000072 0.000102 162.481526 -35.684416 -231.186303 3.700105 0.000204 -0.000321 121.297671 -18.139511 31.690066 2.950090 0.000160 -0.000168 95.760202 -19.193653 21.186781 2.952870 -0.000014 0.000057 -0.000001 0.000002 0.000001 9.104632 -0.042973 -1.865040 159.924153 -31.869714 -243.588697 3.150015 0.000338 -0.000088 121.814757 1.324714 -2.377845 2.949913 0.000310 -0.000140 106.657120 12.435238 -16.646798 2.644322 0.000031 0.000055 0.000001 -0.000000 -0.000002 8.077879 -0.486823 -3.806223 157.515541 -33.261047 -245.500522 3.599932 0.000406 0.014624 132.073619 4.444925 -9.129683 2.099872 0.000339 0.007531 113.278018 19.586104 -29.035271 2.125500 -0.000018 0.007533 0.000001 -0.000003 -0.000002 -8.207786 -6.751667 -1.599560 -0.077001 -0.000003 0.000080 -0.000002 -44.370110 0.345938 0.153719 -0.000000 -0.000000 0.000000 -44.423679 -3.043532 -0.076700 0.000000 -0.000002 -0.000006 -8.728667 10.710559 -0.000009 -0.000000 -0.000000 -0.000001 -0.000679 9.278123 0.000000 -0.000000 -0.000000 8.207792 -6.751710 -1.599556 -0.074518 -0.000003 0.000081 -0.000002 -44.370014 0.346960 0.148822 0.000002 0.000000 -0.000001 -44.423664 -3.044403 -0.074314 0.000000 -0.000002 -0.000004 -8.728671 10.710558 0.000007 -0.000000 -0.000000 0.000000 -0.000680 9.278137 -0.000000 0.000000 -0.000001 
0.000006 104.270477 1.554256 0.000010 0.000003 -0.000113 -0.000005 10.181587 0.131522 0.000001 -0.000003 0.000084 -0.000000 9.893967 -1.470711 0.000001 0.000000 -0.000000 -0.000000 9.220802 -1.370642 0.000000 -0.000000 -0.000000 0.000001 16.740433 -2.049030 0.000000 -0.000000 -0.000000 0.000000 9.617859 1.685014 0.000000 0.000000 0.000000 0.000002 22.037384 7.501101 0.000000 -0.000000 0.000000 -4.569968 11.014880 -2.160881 0.000008 0.000001 -0.000038 -10.592825 -0.524819 -2.231779 47.774045 60.959315 -29.219003 -27.841545 -0.000005 0.000527 93.182529 101.763200 -104.861388 -28.328842 0.000021 0.000016 -0.000322 -0.000045 0.000006 -2.464500 -1.574150 2.682233 46.645913 -129.244719 105.830086 -3.214940 -1.873028 1.924657 230.792393 -36.149896 296.648967 -2.654651 -1.528225 1.513119 203.356479 -24.307569 280.313040 -2.018831 -1.151983 1.108068 -0.000003 0.000001 0.000004 -9.108353 -0.517962 2.260294 261.432485 26.163444 -329.761287 -3.699944 0.000087 0.001822 218.135301 35.063674 -275.141221 -2.849854 0.000084 0.000087 191.461158 30.103577 -220.926321 -2.772182 -0.000015 -0.000018 -0.000000 -0.000002 0.000001 -9.532527 -0.000021 0.000537 158.054443 30.200460 -109.078811 -3.700097 0.000225 0.004157 126.027372 17.736384 -33.875423 -2.950110 0.000241 -0.001699 111.548696 27.875558 -40.075138 -2.946613 0.000001 -0.000156 -0.000004 0.000002 0.000001 -9.103676 -0.042929 -1.864622 147.713387 20.600913 -64.101018 -3.379153 0.000399 -0.000782 112.768575 -13.291568 19.865650 -2.889676 0.000226 0.000373 220.366887 -172.270212 182.833400 -2.638808 -0.000009 0.000945 0.000004 0.000001 -0.000001 -8.076721 -0.486535 -3.805749 148.151065 16.914016 -54.538740 -3.599800 0.000355 -0.003434 305.464337 -157.019697 223.286438 -2.099740 0.000110 -0.005816 206.488776 -140.913209 189.518652 -2.115777 -0.000037 -0.003679 0.000004 -0.000001 -0.000006 4.570446 11.014691 -2.160851 -0.000018 0.000010 -0.000021 10.592478 -0.524529 -2.232379 53.104243 -53.108372 28.044603 27.841726 -0.000045 -0.000147 133.285923 -99.060153 139.548264 28.328836 -0.000010 0.000020 0.000023 -0.000093 -0.000002 2.466197 -1.576105 2.681869 -114.414459 35.078520 50.783628 3.217847 -1.871960 1.916556 247.271481 29.247977 407.771009 2.656077 -1.528737 1.514610 -141.199722 25.621223 66.607622 2.020887 -1.154080 1.115147 0.000005 0.000001 0.000004 9.109267 -0.517941 2.260080 299.241407 -30.412008 341.895392 3.699818 0.000172 -0.000082 240.915143 -39.066240 297.793734 2.849751 0.000173 0.000509 199.097050 -27.086490 -110.145120 2.774890 -0.000015 -0.000033 0.000004 -0.000003 0.000002 9.533278 0.000043 0.000161 179.705296 -48.355981 -180.672478 3.700132 0.000128 -0.000230 154.756705 -19.112679 73.862943 2.950131 0.000256 -0.000098 146.070371 -14.169984 44.344863 2.952881 -0.000017 0.000055 -0.000002 -0.000001 0.000000 9.104588 -0.042988 -1.865036 159.290708 -36.194347 -238.414856 3.150049 0.000341 -0.000007 142.750803 -5.441391 16.057293 2.949946 0.000380 -0.000048 141.543923 3.711155 -10.609740 2.644314 0.000018 0.000045 0.000003 0.000002 -0.000002 8.077872 -0.486832 -3.806218 156.166811 -34.474919 -246.735557 3.599958 0.000429 0.014667 147.783109 0.650817 -0.804353 2.099851 0.000411 0.007622 145.083887 11.978592 -36.165811 2.125510 -0.000014 0.007511 -0.000002 0.000000 0.000000 -8.207786 -6.751667 -1.599560 -0.077001 -0.000003 0.000080 -0.000002 -44.370110 0.345938 0.153719 -0.000000 -0.000000 0.000000 -44.423679 -3.043532 -0.076700 0.000000 -0.000002 -0.000006 -8.728667 10.710559 -0.000009 -0.000000 -0.000000 -0.000001 -0.000679 9.278123 0.000000 -0.000000 -0.000000 8.207792 -6.751710 -1.599556 -0.074518 -0.000003 0.000081 -0.000002 -44.370014 0.346960 0.148822 0.000002 0.000000 -0.000001 -44.423664 -3.044403 -0.074314 0.000000 -0.000002 -0.000004 -8.728671 10.710558 0.000007 -0.000000 -0.000000 0.000000 -0.000680 9.278137 -0.000000 0.000000 -0.000001 
